<svg xmlns="http://www.w3.org/2000/svg" width="500" height="150" viewBox="0 0 500 150">
  <g fill="#FFFFFF">
    <path d="M78,65 c-10-20-30-25-45-10 c-5,5-5,15,5,25 c10,10,25,5,40-15 Z" />
    <path d="M45,85 c-15-5-25,10-20,25 c5,10,15,10,25,5 c10-5,5-20-5-30 Z" />
    <path d="M65,115 c20,5,35-15,25-30 c-5-10-15-10-25-5 c-10,10-5,25,0,35 Z" />
    <path d="M100,55 c15-5,15-25,0-35 c-10-5-20,0-25,10 c-5,15,5,30,25,25 Z" />
    
    <text x="140" y="105" font-family="Arial, Helvetica, sans-serif" font-weight="bold" font-size="95" letter-spacing="-2">ayesa</text>
  </g>
</svg>