<?xml version="1.0" encoding="UTF-8" standalone="no"?>
<!DOCTYPE svg PUBLIC "-//W3C//DTD SVG 1.1//EN" "http://www.w3.org/Graphics/SVG/1.1/DTD/svg11.dtd">
<svg width="100%" height="100%" viewBox="0 0 1680 474" version="1.1" xmlns="http://www.w3.org/2000/svg" xmlns:xlink="http://www.w3.org/1999/xlink" xml:space="preserve" xmlns:serif="http://www.serif.com/" style="fill-rule:evenodd;clip-rule:evenodd;stroke-linejoin:round;stroke-miterlimit:2;">
    <g transform="matrix(1.33333,0,0,1.33333,0,-3029.56)">
        <g id="LOGO-BLANCO" serif:id="LOGO BLANCO">
        </g>
        <g id="Artboard-5" serif:id="Artboard 5" transform="matrix(0.644303,0,0,0.229322,-897.538,1809.71)">
            <rect x="1393.04" y="2016.65" width="1954.95" height="1550.17" style="fill:none;"/>
            <g transform="matrix(6.46693,0,0,18.1695,1379.91,2123.82)">
                <g transform="matrix(1,0,0,1,0,-29.55)">
                    <path d="M26.519,32.164C23.539,32.164 20.978,34.275 20.408,37.2L7.898,101.386L61.861,101.386C88.285,101.386 93.496,89.012 93.496,78.87C93.496,68.822 86.517,64.355 80.376,63.147C86.331,62.402 96.194,58.681 96.194,48.167C96.194,39.328 90.424,32.164 73.678,32.164L26.519,32.164ZM40.09,47.515L66.141,47.515C70.979,47.515 72.652,49.656 72.652,52.54C72.652,55.425 71.166,58.681 64.746,58.681L37.949,58.681L40.09,47.515ZM35.159,73.009L62.884,73.009C68.747,73.009 70.329,75.614 70.329,78.591C70.329,81.755 68.747,85.29 61.396,85.29L32.738,85.29L35.159,73.009Z" style="fill:white;fill-rule:nonzero;"/>
                </g>
                <g transform="matrix(1,0,0,1,0,-29.549)">
                    <path d="M208.031,32.163C205.64,32.163 203.459,33.534 202.422,35.688L181.138,79.893L176.393,32.163L156.232,32.163C153.828,32.163 151.638,33.547 150.607,35.72L129.687,79.799L124.569,32.163L109.362,32.163C105.56,32.163 102.646,35.54 103.201,39.301L112.381,101.386L137.781,101.386L159.832,55.609L165.135,101.386L190.72,101.386L226.262,32.163L208.031,32.163Z" style="fill:white;fill-rule:nonzero;"/>
                </g>
                <g transform="matrix(1,0,0,1,0,-30.481)">
                    <path d="M261.15,32.165C232.029,32.165 226.633,47.609 225.888,57.751L248.125,57.751C248.59,54.587 250.73,47.609 263.384,47.609C273.432,47.609 275.757,50.308 275.757,53.564C275.757,56.821 273.896,58.96 263.011,61.472C259.384,62.216 254.823,63.241 250.823,64.263C223.562,71.428 220.119,80.639 218.165,91.245L216.026,102.317L290.458,102.317L293.807,85.012L237.703,85.012C237.984,83.429 240.403,80.825 254.451,78.127C258.08,77.383 263.197,76.545 267.011,75.894C286.364,72.917 298.46,68.078 298.46,53.192C298.46,40.817 290.364,32.165 265.709,32.165L261.15,32.165Z" style="fill:white;fill-rule:nonzero;"/>
                </g>
            </g>
        </g>
        <g id="LOGO-AZUL" serif:id="LOGO AZUL">
        </g>
    </g>
</svg>