<?xml version="1.0" encoding="UTF-8"?> <svg xmlns="http://www.w3.org/2000/svg" width="240" height="64" viewBox="0 0 240 64" fill="none"><path d="M74.4633 20.5766H78.7496V39.8332H90.817V43.4234H74.4633V20.5766Z" fill="white"></path><path d="M110.673 38.136H99.133L96.8543 43.4234H92.4362L102.826 20.5694H107.046L117.465 43.4234H112.981L110.673 38.136ZM109.251 34.8069L104.899 24.8196L100.576 34.8069H109.251Z" fill="white"></path><path d="M141.109 33.6174C141.856 34.5893 142.23 35.786 142.23 37.2221C142.23 39.2022 141.46 40.7326 139.922 41.806C138.383 42.8867 136.141 43.4234 133.196 43.4234H121.722V20.5694H132.536C135.262 20.5694 137.365 21.0988 138.837 22.1505C140.31 23.2022 141.05 24.66 141.05 26.5095C141.05 27.641 140.786 28.6419 140.259 29.5122C139.731 30.3826 139.006 31.0571 138.083 31.5358C139.358 31.9492 140.369 32.6383 141.116 33.6102M126.008 23.9057V30.2085H132.075C133.569 30.2085 134.72 29.9402 135.518 29.4107C136.324 28.874 136.72 28.0979 136.72 27.0753C136.72 26.0526 136.317 25.2403 135.518 24.7108C134.712 24.1813 133.569 23.913 132.075 23.913H126.008V23.9057ZM137.907 36.8015C137.907 34.6038 136.251 33.5086 132.925 33.5086H126.001V40.1016H132.925C136.244 40.1016 137.907 39.0064 137.907 36.8015Z" fill="white"></path><path d="M151.059 42.2339C149.168 41.2185 147.688 39.8187 146.604 38.0199C145.527 36.2212 144.985 34.2194 144.985 32C144.985 29.7806 145.527 27.7715 146.604 25.9801C147.681 24.1813 149.168 22.7815 151.059 21.7733C152.949 20.7579 155.074 20.2575 157.426 20.2575C159.778 20.2575 161.903 20.7652 163.793 21.7733C165.683 22.7888 167.171 24.1813 168.248 25.9655C169.325 27.7498 169.86 29.7661 169.86 32.0073C169.86 34.2484 169.317 36.2647 168.248 38.049C167.171 39.8332 165.683 41.233 163.793 42.2412C161.903 43.2566 159.778 43.757 157.426 43.757C155.074 43.757 152.949 43.2493 151.059 42.2412M161.573 39.0063C162.804 38.3173 163.771 37.3672 164.474 36.1342C165.178 34.9084 165.529 33.5304 165.529 32.0073C165.529 30.4841 165.178 29.1061 164.474 27.8803C163.771 26.6546 162.804 25.6899 161.573 25.0082C160.342 24.3191 158.957 23.9782 157.418 23.9782C155.88 23.9782 154.495 24.3191 153.264 25.0082C152.033 25.6899 151.066 26.6546 150.363 27.8803C149.659 29.1061 149.308 30.4841 149.308 32.0073C149.308 33.5304 149.659 34.9084 150.363 36.1342C151.066 37.3672 152.033 38.3246 153.264 39.0063C154.495 39.6954 155.88 40.0363 157.418 40.0363C158.957 40.0363 160.342 39.6954 161.573 39.0063Z" fill="white"></path><path d="M180.015 24.1305V31.0861H191.159V34.6763H180.015V43.4234H175.721V20.5766H192.573V24.1305H180.015Z" fill="white"></path><path d="M202.897 24.1668H195.247V20.5766H214.832V24.1668H207.183V43.4234H202.897V24.1668Z" fill="white"></path><path d="M233.201 38.136H221.661L219.389 43.4234H214.971L225.361 20.5694H229.581L240 43.4234H235.516L233.208 38.136H233.201ZM231.787 34.8069L227.434 24.8196L223.112 34.8069H231.787Z" fill="white"></path><path d="M20.5007 64C2.1248 64 0 52.4243 0 43.7135V0.101541L42.584 0C53.8894 0 63.0846 9.10245 63.0846 20.2937V63.7389L20.5007 64ZM2.68897 2.75612V43.7135C2.68897 52.4315 4.80645 61.3454 20.5007 61.3454L60.403 61.0988V20.2937C60.403 10.5748 52.4167 2.66183 42.5913 2.66183L2.68897 2.75612Z" fill="white"></path><path d="M35.5648 53.9184H18.2806C14.6318 53.9184 11.6718 50.9882 11.6718 47.3763V19.9529H16.7713C20.1563 19.9529 22.9039 22.6727 22.9039 26.0236V44.3228L24.7283 44.3083H47.3904C50.5263 44.3083 53.0907 41.835 53.2006 38.7525H28.0254V10.0816H33.0956C36.4953 10.0816 39.2575 12.8087 39.2575 16.1813V28.99C39.2575 30.3899 38.1072 31.5286 36.6931 31.5286V16.1813C36.6931 14.2158 35.0812 12.6201 33.0956 12.6201H30.5898V36.2212H55.7724V38.5567C55.7724 43.1333 52.0137 46.854 47.3904 46.854L20.3395 46.8903V26.0236C20.3395 24.0725 18.7422 22.4914 16.7713 22.4914H14.2362V47.3763C14.2362 49.5884 16.0459 51.3799 18.2806 51.3799H38.1292C38.1292 52.787 36.9789 53.9184 35.5648 53.9184Z" fill="white"></path></svg> 