<svg width="1088" height="400" viewBox="0 0 1088 400" fill="none" xmlns="http://www.w3.org/2000/svg">
<g clip-path="url(#clip0_2_3676)">
<path d="M353.51 142.85C353.51 135.96 359.28 130 366.54 130C373.8 130 379.38 135.96 379.38 142.85C379.38 149.74 373.61 155.88 366.54 155.88C359.47 155.88 353.51 149.74 353.51 142.85ZM355 170.4H377.71V266.64H355V170.4Z" fill="#21409A"/>
<path d="M492.93 205.4V266.64H470.97V209.87C470.97 196.84 462.59 187.53 450.68 187.53C438.77 187.53 428.9 195.53 427.41 205.77V266.64H404.7V170.4H427.41V183.24C433.37 174.31 444.54 168.16 457.19 168.16C478.22 168.16 492.93 183.61 492.93 205.39V205.4Z" fill="#21409A"/>
<path d="M573.9 261.24C568.5 265.89 560.68 268.87 553.42 268.87C537.41 268.87 526.24 257.33 526.24 241.13V189.19H512.28V170.39H526.24V143.96H548.39V170.39H570.17V189.19H548.39V238.33C548.39 244.85 552.48 249.5 557.88 249.5C561.79 249.5 565.33 248.01 567.37 245.96L573.89 261.22L573.9 261.24Z" fill="#21409A"/>
<path d="M663.25 239.09L677.58 253.98C669.2 262.92 652.45 268.87 638.49 268.87C610.94 268.87 588.23 247.84 588.23 218.24C588.23 188.64 609.82 168.17 637.19 168.17C666.97 168.17 684.29 190.69 684.29 226.25H611.69C614.48 239.47 624.53 248.77 638.31 248.77C647.24 248.77 657.86 244.67 663.25 239.09ZM611.87 208.93H662.5C659.89 196.83 651.7 188.27 638.12 188.27C625.46 188.27 615.22 196.27 611.87 208.93Z" fill="#21409A"/>
<path d="M705.88 136.52H728.59V266.64H705.88V136.52Z" fill="#21409A"/>
<path d="M754.09 142.85C754.09 135.96 759.86 130 767.12 130C774.38 130 779.96 135.96 779.96 142.85C779.96 149.74 774.19 155.88 767.12 155.88C760.05 155.88 754.09 149.74 754.09 142.85ZM755.58 170.4H778.29V266.64H755.58V170.4Z" fill="#21409A"/>
<path d="M800.25 218.43C800.25 191.07 823.89 168.17 852 168.17C866.52 168.17 879.36 174.31 888.48 183.81L873.22 197.21C868.01 191.44 860 187.53 851.81 187.53C835.99 187.53 822.77 201.68 822.77 218.43C822.77 235.18 835.99 249.52 851.81 249.52C860.19 249.52 868.38 245.61 873.78 239.47L889.04 252.69C879.73 262.56 866.89 268.89 851.62 268.89C823.88 268.89 800.24 245.81 800.24 218.44L800.25 218.43Z" fill="#21409A"/>
<path d="M991.98 208.75V266.64H969.83V255.1C962.76 264.03 950.66 268.88 939.49 268.88C919.01 268.88 903.56 256.78 903.56 238.17C903.56 219.56 921.24 206.15 942.84 206.15C951.59 206.15 961.08 208.01 969.83 211.36V208.75C969.83 197.58 963.69 186.79 946.19 186.79C937.07 186.79 928.32 189.95 920.13 194.05L912.31 178.23C925.9 171.53 938.56 168.18 950.66 168.18C976.16 168.18 991.98 184.38 991.98 208.76V208.75ZM969.83 236.48V225.68C962.76 223.26 954.75 221.96 946.19 221.96C934.84 221.96 925.71 228.29 925.71 237.41C925.71 246.53 933.71 252.3 944.51 252.3C955.31 252.3 967.22 246.72 969.83 236.48Z" fill="#21409A"/>
<path d="M121.43 264.24C121.43 264.24 151.17 291.38 260.78 240.5L274.87 213.57L278.76 203.72C278.76 203.72 209.47 253.88 136.35 232.18C112.22 225.02 121.43 264.24 121.43 264.24Z" fill="#21409A"/>
<path d="M160.35 290.9C160.35 290.9 194.37 304.16 243.73 276.69L256.61 268.44L263.39 260.39C263.39 260.39 213.03 284.69 169.28 271.71C154.84 267.43 160.35 290.9 160.35 290.9Z" fill="#21409A"/>
<path d="M97.58 210.81C97.58 210.81 171.77 253.74 275.3 172.83L263.8 143.44C263.8 143.44 201.11 198.83 123.82 174.4C97.7 166.15 97.58 210.81 97.58 210.81Z" fill="#21409A"/>
<path d="M111.08 150.16C111.08 150.16 169.19 177.25 247.48 127.07L221.81 114.18C221.81 114.18 198.26 138.12 132.92 127.75L111.08 150.16Z" fill="#21409A"/>
<path d="M254.49 125.91C246.13 119.03 236.59 113.53 226.22 109.76C210.21 119.55 190.48 130.04 167.72 139.09C140.74 149.83 118.02 162.58 100.7 173.78C98.29 182.21 97 191.11 97 200.32C97 203.88 97.2 207.4 97.58 210.86C115.56 197.72 144.73 179.02 182.05 164.18C211.95 152.28 236.62 137.92 254.49 125.92V125.91Z" fill="#FF860D"/>
<path d="M205.49 104.76C201.5 104.26 197.44 104 193.32 104C158.51 104 128.01 122.47 111.09 150.14C125.24 142.01 141.78 133.67 160.34 126.29C177.13 119.61 192.27 112.15 205.49 104.76Z" fill="#FF860D"/>
<path d="M285.59 228.02C288.22 219.25 289.64 209.95 289.64 200.32C289.64 198.05 289.56 195.79 289.4 193.56C271.45 205.69 246.44 220.36 216 232.46C180.85 246.44 152.93 263.85 134.78 276.8C142.74 282.9 151.69 287.79 161.34 291.19C177.57 281.19 197.73 270.38 221.09 261.09C246.78 250.87 268.61 238.82 285.59 228.02Z" fill="#FF860D"/>
<path d="M286.05 174.2C282.26 160.71 275.6 148.42 266.78 138.03C248.69 150.48 222.72 166 190.78 178.71C149.81 195 118.67 215.94 101.37 229.07C105.51 242.32 112.43 254.33 121.45 264.43C139.49 251.32 168.34 232.96 205.11 218.33C240.08 204.42 267.89 187.13 286.05 174.19V174.2Z" fill="#FF860D"/>
<path d="M229.01 272.52C210.87 279.73 194.66 287.86 180.73 295.81C184.85 296.35 189.05 296.63 193.32 296.63C228.31 296.63 258.93 277.98 275.8 250.07C262.2 257.75 246.5 265.56 229.01 272.51V272.52Z" fill="#FF860D"/>
</g>
<defs>
<clipPath id="clip0_2_3676">
<rect width="895.98" height="194.45" fill="white" transform="translate(96 103)"/>
</clipPath>
</defs>
</svg>
