<svg xmlns="http://www.w3.org/2000/svg" width="333" height="73" viewBox="0 0 333 73" fill="none"><path d="M50.1832 52.4756H2.02836C1.762 52.4756 1.49824 52.4234 1.25215 52.322C1.00605 52.2206 0.782447 52.0719 0.594096 51.8845C0.405745 51.6971 0.256336 51.4746 0.154401 51.2297C0.0524658 50.9849 0 50.7224 0 50.4574V38.3477C0 37.8125 0.213702 37.2991 0.594093 36.9206C0.974485 36.5421 1.49041 36.3294 2.02836 36.3294H50.4114C55.6895 36.3294 60.3094 32.4394 60.804 27.2107C60.9386 25.8103 60.7777 24.3973 60.3317 23.0623C59.8857 21.7273 59.1645 20.4997 58.2141 19.4581C57.2637 18.4165 56.1051 17.5839 54.8127 17.0137C53.5202 16.4434 52.1223 16.148 50.7084 16.1465H28.3967V26.2378C28.3967 26.7731 28.183 27.2865 27.8026 27.665C27.4222 28.0435 26.9063 28.2561 26.3684 28.2561H14.1984C13.932 28.2561 13.6683 28.2039 13.4222 28.1025C13.1761 28.0011 12.9525 27.8524 12.7641 27.665C12.5758 27.4776 12.4264 27.2551 12.3244 27.0102C12.2225 26.7653 12.17 26.5029 12.17 26.2378V2.01832C12.17 1.48303 12.3837 0.96966 12.7641 0.591152C13.1445 0.212643 13.6604 0 14.1984 0H50.7084C57.6203 0.00777856 64.2535 2.71265 69.183 7.53361C74.1126 12.3546 76.9454 18.907 77.0729 25.7835C77.3246 40.4621 64.9369 52.4757 50.1832 52.4756Z" fill="white"></path><path d="M26.3634 72.6601H14.1934C13.6554 72.6601 13.1395 72.4474 12.7591 72.0689C12.3787 71.6904 12.165 71.177 12.165 70.6418V64.5869C12.1651 62.4458 13.0199 60.3924 14.5415 58.8784C16.063 57.3644 18.1266 56.5138 20.2784 56.5137H26.3634C26.9014 56.5137 27.4173 56.7263 27.7977 57.1048C28.178 57.4834 28.3917 57.9967 28.3917 58.532V70.6418C28.3917 70.9068 28.3393 71.1692 28.2373 71.4141C28.1354 71.659 27.986 71.8815 27.7977 72.0689C27.6093 72.2563 27.3857 72.405 27.1396 72.5064C26.8935 72.6079 26.6298 72.6601 26.3634 72.6601V72.6601Z" fill="white"></path><path d="M148.07 72.6586H122.349C101.919 72.6586 84.847 56.0228 85.1974 35.6969C85.3748 26.1763 89.2975 17.1045 96.1229 10.4301C102.948 3.75562 112.132 0.0108404 121.702 0H148.07C148.608 0 149.124 0.212643 149.505 0.591152C149.885 0.96966 150.099 1.48303 150.099 2.01832V8.07317C150.099 10.2143 149.244 12.2677 147.722 13.7817C146.201 15.2957 144.137 16.1463 141.985 16.1463H122.163C110.815 16.1463 101.23 25.3861 101.421 36.6757C101.519 41.9659 103.697 47.007 107.49 50.7161C111.282 54.4251 116.384 56.5062 121.702 56.5122H148.07C148.608 56.5122 149.124 56.7249 149.505 57.1034C149.885 57.4819 150.099 57.9952 150.099 58.5305V70.6403C150.099 71.1756 149.885 71.6889 149.505 72.0675C149.124 72.446 148.608 72.6586 148.07 72.6586Z" fill="white"></path><path d="M208.926 0H164.302C163.182 0 162.274 0.903631 162.274 2.01832V14.128C162.274 15.2427 163.182 16.1463 164.302 16.1463H208.926C210.046 16.1463 210.954 15.2427 210.954 14.128V2.01832C210.954 0.903631 210.046 0 208.926 0Z" fill="white"></path><path d="M208.926 56.5113H194.727V26.2371C194.728 25.972 194.675 25.7096 194.573 25.4647C194.471 25.2198 194.322 24.9973 194.133 24.8099C193.945 24.6225 193.721 24.4738 193.475 24.3724C193.229 24.2709 192.966 24.2187 192.699 24.2188H186.614C185.549 24.2187 184.494 24.4275 183.509 24.8333C182.525 25.239 181.631 25.8336 180.877 26.5833C180.124 27.333 179.526 28.223 179.118 29.2024C178.711 30.1819 178.501 31.2317 178.501 32.2919V56.5114H164.302C164.036 56.5114 163.772 56.5636 163.526 56.6651C163.28 56.7665 163.057 56.9152 162.868 57.1026C162.68 57.29 162.53 57.5125 162.428 57.7574C162.327 58.0022 162.274 58.2647 162.274 58.5298V70.6395C162.274 70.9046 162.327 71.167 162.428 71.4119C162.53 71.6568 162.68 71.8793 162.868 72.0667C163.057 72.2541 163.28 72.4028 163.526 72.5042C163.772 72.6056 164.036 72.6578 164.302 72.6578H208.926C209.192 72.6578 209.456 72.6056 209.702 72.5042C209.948 72.4028 210.172 72.2541 210.36 72.0667C210.548 71.8793 210.698 71.6568 210.8 71.4119C210.902 71.167 210.954 70.9046 210.954 70.6395V58.5297C210.954 58.2646 210.902 58.0022 210.8 57.7573C210.698 57.5124 210.548 57.2899 210.36 57.1025C210.172 56.9151 209.948 56.7664 209.702 56.665C209.456 56.5635 209.192 56.5113 208.926 56.5113V56.5113Z" fill="white"></path><path d="M223.124 24.2188H237.297V27.4897H227.031V31.7795H236.03V34.97H227.031V40.1445H237.378V43.3885H223.124V24.2188Z" fill="white"></path><path d="M243.074 31.5126H243.154C243.563 30.7989 244.162 30.2111 244.884 29.8138C245.607 29.4165 246.425 29.2251 247.25 29.2605C250.106 29.2605 252.019 31.4054 252.019 34.4082V43.3898H248.355V34.9444C248.355 33.4698 247.493 32.4242 245.957 32.4242C244.34 32.4242 243.155 33.7111 243.155 35.5879V43.3898H239.49V29.6359H243.074L243.074 31.5126Z" fill="white"></path><path d="M253.61 36.4982C253.61 32.423 256.385 29.2593 260.427 29.2593C264.873 29.2593 267.244 32.6375 267.244 37.5438H257.22C257.49 39.6619 258.675 40.9756 260.75 40.9756C262.178 40.9756 263.013 40.3322 263.418 39.2868H267.028C266.516 41.7266 264.334 43.791 260.777 43.791C256.196 43.7908 253.61 40.6003 253.61 36.4982ZM257.274 35.0236H263.418C263.31 33.2809 262.151 32.0744 260.481 32.0744C258.541 32.0744 257.598 33.2273 257.274 35.0236H257.274Z" fill="white"></path><path d="M272.468 31.8326H272.549C273.384 30.2776 274.327 29.4733 275.944 29.4733C276.235 29.4564 276.528 29.4927 276.806 29.5805V32.771H276.725C274.327 32.5297 272.603 33.7898 272.603 36.6854V43.3881H268.938V29.6341H272.468V31.8326Z" fill="white"></path><path d="M277.613 43.7901H281.251C281.547 44.6481 282.329 45.3186 284.026 45.3186C286.101 45.3186 287.098 44.3264 287.098 42.4499V40.9484H287.017C286.58 41.4744 286.027 41.8932 285.4 42.1721C284.774 42.4511 284.092 42.5829 283.407 42.5571C280.335 42.5571 277.317 40.1441 277.317 35.9884C277.317 31.8863 279.796 29.2589 283.299 29.2589C284.039 29.2223 284.776 29.3699 285.444 29.6882C286.112 30.0065 286.69 30.4856 287.125 31.082H287.179V29.634H290.708V42.3424C290.708 44.2727 290.089 45.5865 289.065 46.5248C287.906 47.5973 286.128 48.0799 284.08 48.0799C280.308 48.0799 277.991 46.4712 277.613 43.7901ZM287.286 35.9077C287.286 33.8969 286.209 32.181 283.999 32.181C282.14 32.181 280.901 33.6288 280.901 35.9346C280.901 38.2671 282.14 39.6345 284.026 39.6345C286.343 39.6343 287.286 37.9455 287.286 35.9077Z" fill="white"></path><path d="M293.365 45.0257H294.658C296.113 45.0257 296.706 44.275 296.706 43.1489C296.706 42.3982 296.437 41.5135 295.655 39.4222L291.937 29.6362H295.79L297.838 35.8296C298.269 37.0896 298.727 38.8324 298.727 38.8324H298.781C298.781 38.8324 299.158 37.0896 299.589 35.8296L301.529 29.6362H305.221L300.398 43.7387C299.347 46.7952 298.323 47.8945 295.521 47.8945H293.365V45.0257Z" fill="white"></path><path d="M222.257 66.6458H226.083C226.352 68.9516 227.673 69.8632 230.421 69.8632C232.415 69.8632 234.166 69.1661 234.166 67.3966C234.166 65.5198 232.334 65.1445 229.397 64.4742C225.948 63.6967 222.796 62.7854 222.796 58.7903C222.796 55.01 225.894 53.0527 230.178 53.0527C234.516 53.0527 237.319 55.1708 237.615 59.0314H233.87C233.654 57.1011 232.145 56.1358 230.151 56.1358C228.05 56.1358 226.676 57.0206 226.676 58.388C226.676 59.943 228.023 60.3988 230.879 61.0155C234.84 61.8734 238.073 62.8118 238.073 66.9407C238.073 70.8283 234.921 72.9999 230.582 72.9999C225.355 73 222.391 70.6943 222.257 66.6458Z" fill="white"></path><path d="M239.442 65.7057C239.442 61.6036 242.379 58.4399 246.663 58.4399C250.947 58.4399 253.884 61.6036 253.884 65.7057C253.884 69.8077 250.947 72.9714 246.663 72.9714C242.379 72.9714 239.442 69.8077 239.442 65.7057ZM250.166 65.7057C250.166 63.0245 248.899 61.2015 246.663 61.2015C244.399 61.2015 243.16 63.0246 243.16 65.7057C243.16 68.3867 244.399 70.1831 246.663 70.1831C248.899 70.1831 250.166 68.3868 250.166 65.7057V65.7057Z" fill="white"></path><path d="M255.637 53.4023H259.302V72.5722H255.637V53.4023Z" fill="white"></path><path d="M270.447 72.5704V70.9617H270.367C269.94 71.6092 269.349 72.1333 268.653 72.4816C267.958 72.8298 267.183 72.9899 266.406 72.9457C263.334 72.9457 261.61 70.9886 261.61 67.9857V58.8164H265.247V67.3689C265.247 68.9776 265.975 69.8623 267.538 69.8623C269.262 69.8623 270.313 68.5754 270.313 66.7523V58.8164H273.977V72.5704H270.447Z" fill="white"></path><path d="M275.546 58.8162H277.459V54.5264H281.043V58.8162H283.414V61.2292H281.043V68.5218C281.015 68.7076 281.032 68.8972 281.092 69.0754C281.151 69.2536 281.252 69.4155 281.385 69.5483C281.519 69.681 281.681 69.781 281.86 69.8402C282.04 69.8993 282.23 69.9161 282.417 69.8891C282.875 69.8891 283.495 69.8623 283.495 69.8623V72.5434C283.495 72.5434 282.659 72.5971 281.204 72.5971C279.426 72.5971 277.459 71.9 277.459 69.2995V61.2292H275.546V58.8162Z" fill="white"></path><path d="M285.293 53.4023H288.957V56.6733H285.293V53.4023ZM285.293 58.8181H288.957V72.5722H285.293V58.8181Z" fill="white"></path><path d="M290.655 65.7057C290.655 61.6036 293.592 58.4399 297.876 58.4399C302.16 58.4399 305.097 61.6036 305.097 65.7057C305.097 69.8077 302.16 72.9714 297.876 72.9714C293.592 72.9714 290.655 69.8077 290.655 65.7057ZM301.378 65.7057C301.378 63.0245 300.112 61.2015 297.876 61.2015C295.612 61.2015 294.373 63.0246 294.373 65.7057C294.373 68.3867 295.612 70.1831 297.876 70.1831C300.112 70.1831 301.378 68.3868 301.378 65.7057V65.7057Z" fill="white"></path><path d="M310.373 60.6928H310.453C310.862 59.9791 311.461 59.3913 312.183 58.994C312.906 58.5967 313.724 58.4052 314.549 58.4407C317.405 58.4407 319.318 60.5856 319.318 63.5884V72.57H315.654V64.1246C315.654 62.65 314.792 61.6044 313.256 61.6044C311.639 61.6044 310.454 62.8913 310.454 64.7681V72.57H306.789V58.816H310.373V60.6928Z" fill="white"></path><path d="M320.713 68.1187H324.108C324.351 69.7005 325.482 70.3976 327.126 70.3976C328.743 70.3976 329.659 69.7809 329.659 68.8157C329.659 67.502 327.907 67.368 326.021 66.9926C323.542 66.51 321.117 65.84 321.117 62.8369C321.117 59.8609 323.596 58.4399 326.749 58.4399C330.386 58.4399 332.407 60.2363 332.676 62.9978H329.363C329.201 61.5232 328.258 60.987 326.695 60.987C325.267 60.987 324.324 61.5232 324.324 62.5152C324.324 63.6949 326.156 63.8021 328.123 64.204C330.44 64.6866 333 65.3301 333 68.5474C333 71.3087 330.629 72.9712 327.18 72.9712C323.165 72.9714 320.929 71.0412 320.713 68.1187Z" fill="white"></path></svg>