<svg width="190" height="50" viewBox="0 0 190 50" fill="none" xmlns="http://www.w3.org/2000/svg">
<g clip-path="url(#clip0_1062_560)">
<path d="M187.264 31.3544C188.775 31.3544 190 32.5673 190 34.0633C190 35.5592 188.768 36.7722 187.258 36.7722C185.747 36.7722 184.522 35.5525 184.522 34.0566C184.522 32.5606 185.747 31.3477 187.258 31.3477L187.264 31.3544ZM187.264 36.2264C188.469 36.2264 189.442 35.2628 189.449 34.07C189.449 32.8773 188.476 31.907 187.264 31.907C186.06 31.907 185.087 32.8706 185.08 34.0633C185.08 35.256 186.053 36.2264 187.264 36.2264Z" fill="white"/>
<path d="M187.741 34.0971C187.945 34.151 188.067 34.2925 188.163 34.461C188.244 34.6092 188.319 34.7575 188.394 34.9057C188.476 35.0674 188.557 35.2292 188.639 35.3976C188.639 35.4044 188.646 35.4111 188.653 35.4246C188.639 35.4246 188.632 35.4246 188.625 35.4246C188.38 35.4246 188.136 35.4246 187.891 35.4246C187.87 35.4246 187.863 35.4246 187.85 35.4044C187.734 35.1618 187.612 34.9259 187.489 34.6833C187.455 34.6159 187.414 34.5553 187.367 34.4947C187.299 34.4071 187.203 34.3666 187.094 34.3531C186.999 34.3464 186.904 34.3531 186.809 34.3531C186.809 34.3531 186.809 34.3531 186.802 34.3531V35.4246H186.067V32.5876C186.067 32.5876 186.081 32.5876 186.087 32.5876C186.475 32.5876 186.863 32.5876 187.251 32.5876C187.441 32.5876 187.625 32.6079 187.802 32.6685C187.918 32.7089 188.027 32.7696 188.115 32.8572C188.204 32.9515 188.251 33.0728 188.272 33.2009C188.292 33.3424 188.292 33.4906 188.251 33.6321C188.19 33.8343 188.054 33.9623 187.863 34.0499C187.822 34.0701 187.782 34.0836 187.741 34.0971ZM186.802 33.8478C186.802 33.8478 186.809 33.8478 186.815 33.8478C186.924 33.8478 187.04 33.8478 187.149 33.8478C187.203 33.8478 187.258 33.841 187.312 33.8275C187.421 33.8006 187.496 33.7332 187.53 33.6254C187.55 33.531 187.557 33.4434 187.53 33.3491C187.503 33.248 187.441 33.1739 187.333 33.1537C187.271 33.1402 187.21 33.1267 187.156 33.1267C187.047 33.1267 186.931 33.1267 186.822 33.1267C186.822 33.1267 186.809 33.1267 186.802 33.1267V33.8545V33.8478Z" fill="white"/>
<path d="M2.62663 50C1.17724 50 0.00683594 48.841 0.00683594 47.4057V25.3168C0.00683594 23.8814 1.17724 22.7224 2.62663 22.7224C4.07603 22.7224 5.24643 23.8814 5.24643 25.3168V47.4057C5.24643 48.841 4.07603 50 2.62663 50Z" fill="white"/>
<path d="M12.3981 37.5875C5.56622 37.5875 0 32.0822 0 25.3099C0 23.8746 1.1704 22.7156 2.6198 22.7156C4.06919 22.7156 5.2396 23.8746 5.2396 25.3099C5.2396 29.2183 8.44459 32.3921 12.3913 32.3921C15.5691 32.3921 18.3998 30.283 19.2708 27.2574C19.6655 25.876 21.1217 25.0808 22.5098 25.4716C23.9048 25.8625 24.7078 27.2978 24.3131 28.6792C22.8024 33.9218 17.9031 37.5808 12.3913 37.5808L12.3981 37.5875Z" fill="#FFB90F"/>
<path d="M3.348 31.5566C2.31369 31.5566 1.33381 30.9501 0.91873 29.9393C-0.503446 26.4892 0.108974 23.4434 0.265482 22.8032C1.4563 17.1428 6.54619 13.0391 12.3982 13.0391C19.2301 13.0391 24.7895 18.5445 24.7895 25.31C24.7895 26.1927 24.6942 27.0687 24.5037 27.9245C24.1975 29.3261 22.8025 30.2156 21.3872 29.9124C19.9718 29.6091 19.0736 28.2277 19.3798 26.8261C19.4887 26.3342 19.5431 25.8221 19.5431 25.3167C19.5431 21.4083 16.3381 18.2345 12.3914 18.2345C9.00268 18.2345 6.05626 20.6199 5.38259 23.9016C5.36898 23.9555 5.36218 24.0027 5.34857 24.0498C5.34857 24.0498 4.91307 25.9164 5.76366 27.9852C6.30803 29.3126 5.66839 30.8288 4.32787 31.3679C4.00125 31.4959 3.66782 31.5633 3.33439 31.5633L3.348 31.5566Z" fill="white"/>
<path d="M12.3981 37.5875C5.56622 37.5875 0 32.0822 0 25.3099C0 23.8746 1.1704 22.7156 2.6198 22.7156C4.06919 22.7156 5.2396 23.8746 5.2396 25.3099C5.2396 29.2183 8.44459 32.3921 12.3913 32.3921C13.8407 32.3921 15.0111 33.5512 15.0111 34.9865C15.0111 36.4218 13.8407 37.5808 12.3913 37.5808L12.3981 37.5875Z" fill="#F0572D"/>
<path d="M46.7616 16.2802C49.0344 18.4163 50.1367 20.7209 50.1367 23.295C50.1367 25.4851 48.5853 27.2977 45.4347 27.2977H33.2611C32.6147 27.2977 32.1996 27.9851 32.5126 28.5511C33.7034 30.7276 36.0306 32.0686 38.5212 32.0686C41.0117 32.0686 42.8966 30.8624 43.611 29.9325L44.1078 29.2182H48.524C49.1637 29.2182 49.5856 29.8988 49.2725 30.4581C49.0684 30.8287 48.769 31.3072 48.3063 31.9608C47.7007 32.8368 46.9794 33.605 46.2036 34.3193C44.6522 35.6333 41.7193 37.008 38.4531 37.008C35.1869 37.008 32.2541 35.8557 29.8724 33.5511C27.5452 31.1926 26.3884 28.3961 26.3884 25.0538C26.3884 21.7115 27.552 18.9689 29.9337 16.6104C32.3153 14.2519 35.1392 13.0996 38.5143 13.0996C41.8895 13.0996 44.4957 14.1441 46.7616 16.2802ZM43.6791 22.5807C44.3051 22.5807 44.7406 21.9204 44.448 21.3678C43.4818 19.5349 41.2022 18.0861 38.5143 18.0861C35.8265 18.0861 33.6694 19.3462 32.5739 21.3139C32.2609 21.8799 32.6623 22.574 33.3156 22.574H43.6791V22.5807Z" fill="white"/>
<path d="M56.5061 36.725H53.1309C52.6138 36.725 52.1919 36.3072 52.1919 35.7951V22.8032C52.1919 16.0579 56.0093 13.376 61.1604 13.376H61.4939C62.011 13.376 62.4329 13.7938 62.4329 14.3059V18.4164H61.4394C58.7856 18.4164 57.4519 19.8989 57.4519 22.8032V35.7951C57.4519 36.3072 57.03 36.725 56.5129 36.725H56.5061Z" fill="white"/>
<path d="M109.086 16.2803C111.352 18.4164 112.461 20.721 112.461 23.2951C112.461 25.4851 110.909 27.2978 107.759 27.2978H95.0339C94.6665 27.2978 94.4215 27.6751 94.5644 28.0053C95.6464 30.4986 98.1505 32.0619 100.838 32.0619C103.22 32.0619 105.214 30.8557 105.928 29.9258L106.425 29.2115H111.399C111.767 29.2115 112.012 29.5821 111.862 29.9123C111.678 30.3234 111.352 30.9231 110.63 31.9474C110.025 32.8234 109.303 33.5916 108.528 34.3059C106.976 35.6199 104.043 36.9945 100.777 36.9945C97.5108 36.9945 94.578 35.8422 92.1964 33.5377C89.8692 31.1792 88.7124 28.3827 88.7124 25.0404C88.7124 21.698 89.876 18.9555 92.2576 16.597C94.6393 14.2385 97.4632 13.0862 100.838 13.0862C104.213 13.0862 106.82 14.1307 109.086 16.2668V16.2803ZM106.534 22.5808C106.888 22.5808 107.139 22.2304 107.017 21.9069C106.241 19.8315 103.792 18.0862 100.838 18.0862C97.8851 18.0862 95.6259 19.5821 94.6257 21.8665C94.476 22.2034 94.7209 22.5808 95.0884 22.5808H106.527H106.534Z" fill="white"/>
<path d="M124.75 31.6847V36.7251H123.641C118.272 36.7251 114.509 34.0971 114.509 27.3518V4.19814C114.509 3.51081 115.067 2.95825 115.761 2.95825H118.51C119.204 2.95825 119.762 3.51081 119.762 4.19814V12.1294C119.762 12.8167 120.32 13.3693 121.014 13.3693H123.049C123.743 13.3693 124.301 13.9219 124.301 14.6092V17.1698C124.301 17.8572 123.743 18.4097 123.049 18.4097H121.014C120.32 18.4097 119.762 18.9623 119.762 19.6496V27.345C119.762 30.2494 121.035 31.6779 123.634 31.6779H124.743L124.75 31.6847Z" fill="white"/>
<path d="M145.062 13.376C146.532 13.376 147.716 14.5552 147.716 16.004V25.9838C147.716 29.6563 146.722 32.4528 144.729 34.2587C142.735 36.0647 140.353 37.0013 137.645 37.0013C134.937 37.0013 132.555 36.1253 130.561 34.3126C128.622 32.5067 127.628 29.7102 127.628 25.9838V16.004C127.628 14.5485 128.819 13.376 130.282 13.376C131.752 13.376 132.936 14.5552 132.936 16.004V25.9838C132.936 29.9326 134.76 31.9609 137.638 31.9609C140.516 31.9609 142.401 29.8787 142.401 25.9838V16.004C142.401 14.5485 143.592 13.376 145.055 13.376H145.062Z" fill="white"/>
<path d="M170.579 36.7251C169.538 36.7251 168.695 35.8895 168.695 34.8585C168.531 35.0202 168.252 35.1887 167.864 35.465C167.197 35.903 164.489 37.0014 161.883 37.0014C158.453 37.0014 155.575 35.8491 153.248 33.5445C150.921 31.186 149.764 28.3895 149.764 25.0472C149.764 21.7049 150.928 18.9623 153.248 16.6038C155.63 14.2453 158.508 13.093 161.883 13.093C165.258 13.093 168.028 14.1914 170.409 16.3275C172.791 18.4636 174.009 21.4286 174.009 25.2089V34.8585C174.009 35.8895 173.165 36.7251 172.124 36.7251H170.573H170.579ZM161.89 31.9542C165.707 31.9542 168.701 29.0499 168.701 25.0472C168.701 21.0445 165.823 18.1402 161.89 18.1402C157.957 18.1402 155.078 21.0984 155.078 25.0472C155.078 28.996 158.066 31.9542 161.89 31.9542Z" fill="white"/>
<path d="M176.615 34.097V2.62803C176.615 1.17251 177.806 0 179.269 0C180.739 0 181.923 1.17925 181.923 2.62803V34.0903C181.923 35.5458 180.732 36.7183 179.269 36.7183C177.799 36.7183 176.615 35.5391 176.615 34.0903V34.097Z" fill="white"/>
<path d="M74.9399 37.5876C68.108 37.5876 62.5486 32.0822 62.5486 25.3168C62.5486 23.8814 63.719 22.7224 65.1684 22.7224C66.6178 22.7224 67.7882 23.8814 67.7882 25.3168C67.7882 29.2251 70.9932 32.399 74.9399 32.399C78.1177 32.399 80.9484 30.2898 81.8194 27.2642C82.2141 25.8828 83.6703 25.0876 85.0584 25.4785C86.4534 25.8693 87.2563 27.3046 86.8617 28.686C85.351 33.9286 80.4517 37.5876 74.9399 37.5876Z" fill="white"/>
<path d="M65.8829 31.5566C64.8486 31.5566 63.8687 30.9501 63.4536 29.9393C62.0315 26.4892 62.6439 23.4434 62.8004 22.8032C63.9912 17.1428 69.0811 13.0391 74.9331 13.0391C81.765 13.0391 87.3244 18.5445 87.3244 25.31C87.3244 26.1927 87.2292 27.0687 87.0386 27.9245C86.7324 29.3261 85.3375 30.2156 83.9221 29.9124C82.5067 29.6091 81.6085 28.2277 81.9147 26.8261C82.0236 26.3342 82.078 25.8221 82.078 25.3167C82.078 21.4083 78.873 18.2345 74.9263 18.2345C71.5376 18.2345 68.5912 20.6199 67.9175 23.9016C67.9039 23.9555 67.8971 24.0027 67.8835 24.0498C67.8835 24.0498 67.448 25.9164 68.2986 27.9852C68.8429 29.3126 68.2033 30.8288 66.8628 31.3679C66.5362 31.4959 66.2027 31.5633 65.8693 31.5633L65.8829 31.5566Z" fill="white"/>
<path d="M65.1684 50C63.719 50 62.5486 48.841 62.5486 47.4057V25.3168C62.5486 23.8814 63.719 22.7224 65.1684 22.7224C66.6178 22.7224 67.7882 23.8814 67.7882 25.3168V47.4057C67.7882 48.841 66.6178 50 65.1684 50Z" fill="white"/>
<path d="M74.9399 37.5876C68.108 37.5876 62.5486 32.0822 62.5486 25.3168C62.5486 23.8814 63.719 22.7224 65.1684 22.7224C66.6178 22.7224 67.7882 23.8814 67.7882 25.3168C67.7882 29.2251 70.9932 32.399 74.9399 32.399C76.3893 32.399 77.5597 33.558 77.5597 34.9933C77.5597 36.4286 76.3893 37.5876 74.9399 37.5876Z" fill="white"/>
</g>
<defs>
<clipPath id="clip0_1062_560">
<rect width="190" height="50" fill="white"/>
</clipPath>
</defs>
</svg>
