<svg xmlns="http://www.w3.org/2000/svg" width="180" height="48" viewBox="0 0 180 48" fill="none"><path d="M5.77068 38.8308H0V46.5003H19.6442V38.8308H13.8576V37.5331C11.5945 38.2591 8.95652 38.7404 5.77068 38.8096V38.8308Z" fill="#30B7F2"></path><path d="M13.8576 23.9973H5.77068V32.3555C9.17724 32.2624 11.7036 31.6082 13.8576 30.6269V23.9973Z" fill="#30B7F2"></path><path d="M129.979 37.6102C130.069 37.8655 130.12 38.1527 130.12 38.4772C130.12 39.1952 129.912 39.7456 129.497 40.1312C129.082 40.5142 128.492 40.7083 127.723 40.7083H126.032V36.6582C122.806 35.5945 120.339 34.0361 118.099 32.4991V46.5029H129.138C132.09 46.5029 133.912 45.8514 135.47 44.551C137.026 43.2506 137.808 41.3731 137.808 38.9239C137.808 38.5596 137.784 38.2139 137.744 37.8788C136.935 37.9453 136.087 37.9825 135.199 37.9879C133.279 38.0011 131.553 37.8602 129.981 37.6102" fill="#30B7F2"></path><path d="M32.853 40.1286C32.4381 40.5115 31.8478 40.7057 31.0792 40.7057H29.3879V36.3098H31.0792C31.8478 36.3098 32.4381 36.496 32.853 36.8709C33.2678 37.2459 33.4753 37.7804 33.4753 38.4772C33.4753 39.1739 33.2678 39.7456 32.853 40.1286ZM37.8711 27.1858C35.1426 27.2044 32.97 27.5714 31.1058 28.175L29.3853 31.422V28.8292C27.2365 29.7759 25.4575 31.0418 23.5534 32.4033C22.8726 32.89 22.1786 33.3846 21.4499 33.8766V46.5029H32.4887C35.4405 46.5029 37.2621 45.8514 38.8204 44.551C40.3761 43.2506 41.1553 41.3731 41.1553 38.9239C41.1553 37.3257 40.7644 36.0093 39.9799 34.9722C39.1954 33.9377 37.7062 33.3314 36.3739 33.1586L40.2352 27.2709C39.5518 27.2177 38.8337 27.1831 38.0679 27.1831C38.0014 27.1831 37.9349 27.1831 37.8658 27.1831" fill="#30B7F2"></path><path d="M107.055 34.7275C106.718 36.02 106.486 37.0119 106.364 37.7086C106.242 38.4054 106.165 39.0622 106.133 39.6765H105.994C105.962 39.0622 105.885 38.4054 105.763 37.7086C105.641 37.0119 105.409 36.0173 105.072 34.7275L104.38 32.1746H107.747L107.055 34.7275ZM104.657 26.8241C104.13 26.7922 103.588 26.7709 103.016 26.7683C102.979 26.7683 102.947 26.7683 102.91 26.7683C102.843 26.7683 102.777 26.7683 102.707 26.7683C99.5562 26.7895 97.1469 27.2762 95.0992 28.0527L101.678 46.5029H110.688L116.076 31.0976C112.93 28.9409 109.882 27.1512 104.659 26.8268" fill="#30B7F2"></path><path d="M53.9944 34.7275C53.6567 36.02 53.4253 37.0119 53.303 37.7086C53.1807 38.4054 53.1036 39.0622 53.0716 39.6765H52.9334C52.9041 39.0622 52.827 38.4054 52.702 37.7086C52.5797 37.0119 52.3483 36.0173 52.0106 34.7275L51.0825 31.4087C49.0534 30.0977 46.3383 28.1272 41.8201 27.449L48.612 46.5029H57.6217L60.9485 36.9933C58.3264 36.0971 56.207 34.8738 54.2976 33.6133L53.9944 34.7275Z" fill="#30B7F2"></path><path d="M86.8899 23.9973L86.7517 25.2551C87.3846 24.827 88.0388 24.4041 88.7302 23.9973H86.8899Z" fill="#30B7F2"></path><path d="M126.03 29.7254V23.9973H116.956C118.331 24.8057 119.575 25.67 120.772 26.5023C122.506 27.707 124.139 28.8399 126.03 29.7254Z" fill="#30B7F2"></path><path d="M81.9702 23.9973H77.1596L74.9125 31.5258C78.343 30.8529 80.7337 29.4595 83.1111 27.816L81.9702 23.9973Z" fill="#30B7F2"></path><path d="M63.0812 30.8955L64.6981 26.2736L65.5996 31.5577C66.9824 31.8183 68.5328 31.9619 70.3225 31.9539C71.3197 31.9459 72.2399 31.8901 73.1015 31.7943L72.2425 23.9973H56.7947L56.0288 26.981C56.0288 26.981 56.0341 26.9837 56.0341 26.9863C58.2812 28.5473 60.3634 29.9754 63.0812 30.8955Z" fill="#30B7F2"></path><path d="M70.1231 38.4054C68.9211 38.4054 67.7962 38.3442 66.7378 38.2352L68.1499 46.5003H76.4974L78.0956 40.9344C78.1462 40.7588 78.2233 40.4982 78.327 40.1499C78.6488 39.033 78.9094 38.0144 79.1115 37.0863C76.6942 37.8708 73.8514 38.3788 70.3624 38.4027C70.2826 38.4027 70.2029 38.4027 70.1231 38.4027" fill="#30B7F2"></path><path d="M139.033 23.9973H129.963L126.756 30.0498C128.753 30.8822 131.077 31.43 134.098 31.5204L139.031 23.9999L139.033 23.9973Z" fill="#30B7F2"></path><path d="M85.8289 33.7649C85.7917 34.1664 85.7571 34.5653 85.7199 34.9642C85.6587 35.645 85.6082 36.3311 85.5656 37.0172C85.4725 36.371 85.3422 35.6876 85.1747 34.9642C85.1242 34.7488 85.063 34.5175 85.0045 34.2914C83.5605 35.1929 81.9702 36.0439 80.1247 36.7353C80.1726 36.9587 80.2098 37.1714 80.2603 37.4001C80.505 38.4772 80.8347 39.6845 81.2443 41.0274L82.9196 46.5003H91.2512L94.1099 28.4596C92.0091 29.401 90.2566 30.6455 88.3871 31.9858C87.5654 32.5735 86.7224 33.1745 85.8262 33.7649" fill="#30B7F2"></path><path d="M21.4526 23.9973V25.9891C22.4418 25.3056 23.4843 24.6275 24.6251 23.9973H21.4526Z" fill="#30B7F2"></path><path d="M151.96 24.585C150.466 23.8005 148.711 23.3989 146.679 23.3989C145.203 23.3989 143.727 23.609 142.251 24.0292C140.775 24.4494 139.299 25.0796 137.824 25.9199L139.935 31.071C143.988 30.2387 146.583 28.3851 149.471 26.3215C150.272 25.7498 151.093 25.162 151.96 24.5876" fill="#30B7F2"></path><path d="M139.132 37.7352C139.079 38.0862 139.049 38.4506 139.049 38.8308C139.049 41.2508 139.916 43.216 141.648 44.7345C143.379 46.2503 145.65 47.0109 148.458 47.0109C149.75 47.0109 151.019 46.8407 152.271 46.5029C153.521 46.1652 154.782 45.6519 156.053 44.9658L153.593 39.0782C152.814 39.6526 152.032 40.0887 151.248 40.3919C150.463 40.695 149.703 40.8466 148.966 40.8466C148.402 40.8466 147.966 40.7535 147.66 40.562C147.352 40.3706 147.2 40.1073 147.2 39.7696C147.2 39.134 148.322 38.5756 150.567 38.0942C150.926 38.0118 151.202 37.9506 151.397 37.9107C152.944 37.5624 154.165 36.8497 155.056 35.7727C155.947 34.6956 156.393 33.3952 156.393 31.8688C156.393 31.0604 156.287 30.3051 156.098 29.5898C155.13 30.2041 154.191 30.8742 153.224 31.5656C149.697 34.0867 145.775 36.8896 139.135 37.7326" fill="#30B7F2"></path><path d="M168.499 34.7275C168.161 36.02 167.929 37.0119 167.807 37.7086C167.685 38.4054 167.608 39.0622 167.576 39.6765H167.437C167.408 39.0622 167.331 38.4054 167.206 37.7086C167.084 37.0119 166.852 36.0173 166.515 34.7275L165.823 32.1773H169.19L168.499 34.7275ZM170.655 26.5077C169.754 26.4066 168.794 26.3481 167.741 26.3481H167.539C166.4 26.3561 165.366 26.4305 164.403 26.5502C161.284 26.9411 158.981 27.8772 156.912 29.0925L163.119 46.5003H172.128L178.253 28.9835C176.149 27.7788 173.817 26.856 170.655 26.505" fill="#30B7F2"></path><path d="M0 9.16636H5.77068V23.9999H13.8576V9.16636H19.6442V1.49694H0V9.16636Z" fill="#003DA6"></path><path d="M129.497 11.1263C129.082 11.5012 128.492 11.6874 127.723 11.6874H126.032V7.29155H127.723C128.492 7.29155 129.085 7.48302 129.497 7.86862C129.912 8.25156 130.12 8.80204 130.12 9.52005C130.12 10.2381 129.912 10.7513 129.497 11.1263ZM104.38 15.8226L105.072 13.2723C105.409 11.9799 105.641 10.988 105.763 10.2912C105.885 9.59451 105.962 8.93766 105.994 8.32336H106.133C106.165 8.93766 106.242 9.59451 106.364 10.2912C106.486 10.988 106.718 11.9826 107.055 13.2723L107.747 15.8226H104.38ZM51.3192 15.8226L52.0106 13.2723C52.3483 11.9799 52.5797 10.988 52.702 10.2912C52.8243 9.59451 52.9014 8.93766 52.9334 8.32336H53.0716C53.1009 8.93766 53.178 9.59451 53.303 10.2912C53.4253 10.988 53.6567 11.9826 53.9944 13.2723L54.6858 15.8226H51.3192ZM32.853 11.1263C32.4381 11.5012 31.8478 11.6874 31.0792 11.6874H29.3879V7.29155H31.0792C31.8478 7.29155 32.4408 7.48302 32.853 7.86862C33.2678 8.25156 33.4753 8.80204 33.4753 9.52005C33.4753 10.2381 33.2678 10.7513 32.853 11.1263ZM136.629 13.025C137.414 11.9905 137.805 10.6742 137.805 9.07328C137.805 6.62407 137.026 4.74926 135.467 3.44621C133.909 2.14581 132.087 1.49428 129.136 1.49428H118.097V22.6916L110.685 1.49694H101.678L94.4636 21.7316L91.2539 1.49694H82.9223L81.2469 6.96978C80.8374 8.31272 80.5076 9.52005 80.263 10.5971C80.0183 11.6741 79.8322 12.6873 79.7098 13.642H79.5716C79.4173 12.1262 79.0025 10.1928 78.327 7.84735C78.226 7.49898 78.1488 7.23837 78.0956 7.06285L76.4974 1.4996H68.1499L64.6954 21.7289L57.6217 1.49694H48.6147L41.2245 22.2235L36.3819 14.8386C37.7142 14.6658 39.2034 14.0595 39.9879 13.025C40.7724 11.9905 41.1633 10.6742 41.1633 9.07328C41.1633 6.62407 40.3841 4.74926 38.8258 3.44621C37.2674 2.14581 35.4458 1.49428 32.494 1.49428H21.4552V23.9973H29.3879V16.5725L33.3237 23.9973H49.2795L49.9709 21.1678H56.074L56.7973 23.9973H72.2452L73.2291 15.0806C73.2903 14.3945 73.3488 13.7111 73.4073 13.0356C73.4632 12.3602 73.5163 11.6741 73.5695 10.9773C73.6626 11.6236 73.7902 12.307 73.9525 13.0303C74.1173 13.751 74.3274 14.5248 74.5827 15.3439L77.1649 23.9973H81.9756L84.5577 15.3439C84.8024 14.5248 85.0125 13.7537 85.18 13.0303C85.3502 12.307 85.4805 11.6236 85.5709 10.9773C85.6135 11.6634 85.664 12.3469 85.7252 13.0303C85.7863 13.7111 85.8475 14.3972 85.9087 15.0833L86.8926 23.9999H102.34L103.032 21.1704H109.135L109.856 23.9999H126.032V16.5752L129.968 23.9999H139.039L133.029 14.8386C134.361 14.6658 135.85 14.0595 136.635 13.025" fill="#003DA6"></path><path d="M155.053 12.2272C154.162 11.1502 152.942 10.4402 151.394 10.0891C151.2 10.0492 150.923 9.98808 150.564 9.90564C148.32 9.42431 147.198 8.86586 147.198 8.23029C147.198 7.89256 147.352 7.62928 147.658 7.43782C147.966 7.249 148.402 7.15327 148.963 7.15327C149.703 7.15327 150.463 7.30485 151.248 7.60801C152.032 7.91117 152.811 8.34996 153.593 8.9217L156.053 3.03401C154.782 2.34792 153.521 1.83467 152.271 1.49694C151.022 1.15921 149.75 0.989014 148.458 0.989014C145.65 0.989014 143.379 1.74691 141.648 3.26537C139.916 4.78117 139.049 6.74906 139.049 9.16902C139.049 10.7274 139.496 12.0278 140.387 13.0729C141.278 14.118 142.565 14.8466 144.246 15.2562C144.533 15.3173 144.932 15.4051 145.445 15.5168C147.033 15.8439 147.828 16.3225 147.828 16.9475C147.828 17.3065 147.668 17.591 147.352 17.8011C147.035 18.0112 146.599 18.1149 146.046 18.1149C145.256 18.1149 144.408 17.9288 143.501 17.5538C142.594 17.1788 141.562 16.5885 140.403 15.7774L137.821 22.0799C139.297 22.9203 140.773 23.5505 142.249 23.9707C143.724 24.3908 145.2 24.6009 146.676 24.6009C149.556 24.6009 151.894 23.8111 153.694 22.2342C155.492 20.6572 156.391 18.6228 156.391 16.1311C156.391 14.6046 155.944 13.3016 155.053 12.2272Z" fill="#003DA6"></path><path d="M165.823 15.8226L166.515 13.2697C166.852 11.9772 167.084 10.9853 167.206 10.2886C167.328 9.59185 167.406 8.935 167.437 8.3207H167.576C167.608 8.935 167.685 9.59185 167.807 10.2886C167.929 10.9853 168.161 11.9799 168.499 13.2697L169.19 15.8226H165.823ZM172.126 1.49694H163.119L155.096 23.9999H163.781L164.472 21.1704H170.575L171.299 23.9999H180L172.126 1.49694Z" fill="#003DA6"></path></svg>