<?xml version="1.0" encoding="iso-8859-1"?>
<!-- Generator: Adobe Illustrator 21.0.0, SVG Export Plug-In . SVG Version: 6.00 Build 0)  -->
<svg version="1.1" id="Capa_1" xmlns="http://www.w3.org/2000/svg" xmlns:xlink="http://www.w3.org/1999/xlink" x="0px" y="0px"
	 viewBox="0 0 436.31 436.31" style="enable-background:new 0 0 436.31 436.31;" xml:space="preserve">
<g>
	<polygon style="fill:#5E0B72;" points="436.31,436.31 0,436.31 0,0 436.31,0 436.31,436.31 	"/>
	<path style="fill-rule:evenodd;clip-rule:evenodd;fill:#FFFFFF;" d="M134.61,327.41c-0.71,4.02-4.14,11.11-5.91,14.92
		c-2.91,6.24-8.22,16.15-12.51,21.23l-2.3,2.85c-0.6,0.63-0.81,0.87-1.33,1.47c-1.25,1.45-9.63,9.86-13.05,5.28
		c-5.4-7.23,7.95-24.81,10.92-28.03l2.46-2.7c0.9-1.01,1.72-1.61,2.63-2.54l5.7-4.82C123.69,333.2,130.93,328.48,134.61,327.41
		L134.61,327.41L134.61,327.41z M257.75,254.46c-0.12-2.65,2.58-13.07,3.35-16.19c2.1-8.56,5.27-21.51,10.7-27.99
		c0.9-1.07,1.21-1.75,2.36-2.6c0.86-0.64,1.61-1.31,2.86-1.89c3.1-1.44,4.87,0.78,5.84,2.94c3.76,8.43-1.32,24.28-4.12,32.1
		c-2.36,6.59-6.16,14-13.51,15.52C260.87,257.26,259.86,255.48,257.75,254.46L257.75,254.46L257.75,254.46z M219.8,211.66
		c3-0.73,5.45,1.09,5.42,3.99c-0.04,4.4-4.37,18.42-5.78,22.59c-1.65,4.9-7.28,25.45-14.88,22.56
		C191.92,255.99,201.19,216.2,219.8,211.66L219.8,211.66L219.8,211.66z M168.09,211.79c-1.26,3.44-2.49,7.31-3.56,10.84
		c-2.2,7.27-4.91,14.46-7.54,21.24c-3.35,8.6-7.18,17.62-14.64,21.5c-1.92,1-3.87,1.05-5.29-0.24c-2.69-2.46-1.68-8.1-0.84-11.89
		c1.66-7.44,4.4-14.92,6.6-22.19c0.86-2.82,2.76-8.82,2.19-11.76c-0.72-3.76-3.4-6.39-7.18-7.13c-5.75-1.13-7.61,0.35-7.61,6.07
		c0,5.38-0.49,7.49-2.27,12.06c-3.97,10.18-12.95,34.54-9.81,46.27c1.92,7.18,8.63,12.6,17.78,9.39c4.8-1.68,9.19-5.31,12.67-8.99
		c0.59-0.62,2.69-2.97,3.04-3.88c-2.03,6.25-4.45,13.19-6.58,19.86c-0.55,1.7-1.04,3.36-1.63,5.02c-1.84,5.14-1.03,6.8-4.93,8.46
		c-1.4,0.59-3.28,1.21-4.69,1.72c-7.25,2.65-21.8,11.89-27.55,17.55c-0.32,0.31-0.48,0.41-0.82,0.68c-1.13,0.86-2.22,2.15-3.24,3.2
		l-6.32,6.99c-2.04,2.43-3.76,5.12-5.38,7.93c-6.37,11.01-13.13,28.99-4,39.97c0.61,0.73,0.86,1.22,1.56,1.87
		c0.63,0.59,1.19,0.9,1.8,1.42c1.25,1.05,2.36,1.78,4.17,2.47c9.61,3.68,19.75-0.62,27.07-6.74l11.04-12.14
		c8.77-11.01,14.72-25.16,19.77-39.71c0.57-1.63,2.85-9.23,3.56-9.8c1.99-1.62,68.26-14.96,77.29-15.37
		c-0.37,2.97-0.7,6.62,0.79,8.95c1.32,2.06,3.75,3.28,6.88,1.78c4.34-2.09,5.64-6.94,7.1-12.84c7.54-1.15,15.23-2.02,22.78-3.06
		c7.55-1.03,15.17-2.11,22.73-3.04c5.62-0.69,34.78-3,39.24-5.85c4.3-2.76,3.06-10.16-0.86-12.58c-2.88-1.77-7.87-1.59-11.46-1.51
		c-7.83,0.17-15.95,1.34-23.72,2.15c-15.36,1.61-30.72,3.82-45.98,5.85l2.3-16.43c0.15-0.97,0.43-4.4,1.11-5.14
		c0.79,1.38,4.33,4,6.41,4.97c8.01,3.73,16.9,2.03,22.43-4.72c7.33-8.95,11.67-20.1,14.64-33.46c2.2-9.92,4.09-30.09-2.37-38.61
		c-3.36-4.44-9.76-6.12-16.64-3.19c-1.44,0.61-2.58,1.46-3.56,2.25c-1.53,1.24-4.14,4.21-5.37,5.8c-0.34,0.44-0.77,1.02-1.16,1.63
		c-0.39,0.59-0.63,1.27-1.18,1.73c0.41-4.72,2.68-7.1-2.97-8.67c-3.61-1-7.58-2.31-9.4,1.76c-1.15,2.57-7.79,38.9-8.51,42.6
		c-0.58,3-2.02,13.55-3.57,15.78c-0.71,1.02-2.17,2.19-3.39,2.86c-4.71,2.6-5.8,2.06-5.8-3.94c0-3.87,0.66-7.72,1.38-11.4
		c2.07-10.53,4.59-21.08,6.91-31.55c0.65-2.97,2.16-7.74,0.88-10.56c-1.56-3.45-10.51-5.89-12.91-1.3c-0.58,1.11-0.97,3.82-1.8,4.6
		c-0.47-0.41-0.27-0.34-0.66-0.78c-3.31-3.75-11.06-4.69-16.3-2.56c-3.76,1.53-6.21,4.18-8.98,6.89
		c-7.89,7.72-14.48,23.5-16.96,35.22c-2.51,11.88-5.44,38.36,12.43,40.72c3.44,0.45,6.84-0.02,9.6-1.48
		c1.48-0.78,2.38-1.41,3.41-2.38c1.98-1.84,3.63-3.72,5.02-6.14l2.05-3.65c0.26,2.55,1.48,5.1,2.79,6.48
		c0.1,0.1,0.23,0.22,0.33,0.32c3.79,3.73,8.67,2.68,13.22,0.81c2.06-0.84,4.42-2.77,5.76-3.26c-0.38,2.12-2.83,15.73-3.44,16.59
		c-0.51,0.38-35.92,5.48-37.63,5.76c-6.26,1.02-12.31,2.02-18.51,3.2c-3.02,0.58-6.04,1.08-9.07,1.65c-3.02,0.57-6.05,1.3-8.93,1.84
		c1.69-7.36,4.29-15.28,6.35-22.69l12.65-44.92c2.1-7.49,4.39-15.02,6.28-22.52c0.93-3.69,2.88-9.3-1.96-10.08
		C178.06,199.21,170.45,205.33,168.09,211.79L168.09,211.79L168.09,211.79z"/>
	<path style="fill-rule:evenodd;clip-rule:evenodd;fill:#FFFFFF;" d="M321.53,217.85c0.82-4.4,4.14-10.98,6.25-14.31
		c1.9-2.99,7.3-10.98,11.21-6.94c3.82,3.95-2.1,12.19-4.14,14C331.62,213.46,327.39,216.68,321.53,217.85L321.53,217.85
		L321.53,217.85z M353.92,198.9c3.23-18.44-16.23-21.73-26.33-15.11c-3.2,2.1-6.93,5.61-9.44,8.59c-3.78,4.49-8.7,13.63-11.07,18.99
		c-5,11.3-8.4,27.38-6.07,40.85c0.77,4.41,2.82,9.34,5.96,12.05c0.95,0.82,2.15,1.78,3.55,2.45c6.5,3.08,13.37,1.22,19.37-1.4
		c5.01-2.18,7.4-3.95,11.07-6.96l4.75-4.27c1.9-2.19,2.6-2.47,4.36-4.65c2.37-2.95,2.02-5.31,0.47-9.22
		c-0.98-2.49-2.66-6.67-5.94-4.42c-1.41,0.97-4.36,5.21-9.14,8.9c-1.18,0.92-2.11,1.65-3.49,2.54c-5.2,3.31-13.26,6.29-15.31-2.34
		c-0.84-3.53-0.05-7.02,1.07-10.18c0.94-2.64,0.37-2.33,3.28-2.77c8.41-1.26,19.47-7.44,24.5-14.57
		C349.33,211.97,352.58,206.53,353.92,198.9L353.92,198.9L353.92,198.9z"/>
	<path style="fill:#01D0B5;" d="M237.45,44.72c-32.96,0-59.68,26.72-59.68,59.68c0,15.73,6.09,30.03,16.04,40.69l-1.4,25.29
		c-0.13,2.3,2.44,3.74,4.34,2.44l18.79-12.92c6.79,2.68,14.18,4.17,21.93,4.17c32.96,0,59.68-26.72,59.68-59.68
		C297.13,71.45,270.41,44.72,237.45,44.72L237.45,44.72L237.45,44.72z M241.79,128.13L241.79,128.13c-1.52,2.59-3.61,4.59-6.23,5.94
		c-2.59,1.33-5.72,2.01-9.32,2.01c-5.63,0-10.2-1.69-13.58-5.01c-3.38-3.32-5.16-7.86-5.29-13.47c0-0.03-0.09-1.16,0.74-2.11
		c0.65-0.74,1.62-1.14,2.9-1.17c1.49-0.02,2.67,0.3,3.39,1.03c0.56,0.55,0.75,1.24,0.74,1.69c0.26,2.46,0.85,4.49,1.76,5.89
		c0.9,1.38,2.21,2.51,3.89,3.36c1.71,0.86,3.68,1.3,5.84,1.3c3.09,0,5.49-0.72,7.14-2.13c1.61-1.39,2.39-3.14,2.39-5.37
		c0-1.3-0.28-2.38-0.85-3.33c-0.56-0.93-1.45-1.71-2.62-2.32c-1.3-0.68-4.22-1.68-8.69-2.96c-4.23-1.22-7.18-2.43-9.02-3.7
		c-1.87-1.29-3.36-2.95-4.4-4.94c-1.04-1.99-1.57-4.25-1.57-6.74c0-4.46,1.51-8.16,4.49-11.01c2.97-2.83,6.98-4.27,11.94-4.27
		c3.38,0,6.39,0.67,8.95,1.98c2.6,1.33,4.65,3.27,6.09,5.76c1.42,2.46,2.19,5.38,2.29,8.68c0,0.09,0.06,1.31-0.83,2.29
		c-0.44,0.48-1.28,1.07-2.73,1.12c-1.5,0.06-2.66-0.3-3.43-1.02c-0.81-0.76-0.88-1.65-0.89-1.82c-0.25-2.93-1.15-5.15-2.68-6.54
		c-1.53-1.39-3.74-2.09-6.6-2.09c-2.93,0-5.15,0.62-6.62,1.83c-1.42,1.18-2.12,2.66-2.12,4.53c0,1.74,0.48,3.02,1.48,3.93
		c0.76,0.69,2.73,1.8,7.89,3.19c4.36,1.17,7.36,2.17,9.17,3.06l0.01,0c2.81,1.4,4.98,3.28,6.43,5.58c1.46,2.3,2.2,5.08,2.2,8.24
		C244.07,122.66,243.3,125.56,241.79,128.13L241.79,128.13L241.79,128.13z M277.32,89.71L277.32,89.71l-23.08,41.98
		c-0.73,1.33-2.14,2.17-3.66,2.17c-0.7,0-1.4-0.18-2.01-0.52c-2.02-1.11-2.76-3.65-1.65-5.67l23.08-41.98
		c1.11-2.01,3.65-2.76,5.67-1.65h0C277.68,85.14,278.43,87.69,277.32,89.71L277.32,89.71z"/>
</g>
</svg>
